<svg width="1440" height="540" viewBox="0 0 1440 540" fill="none" xmlns="http://www.w3.org/2000/svg">
<mask id="path-1-inside-1_35_613" fill="white">
<path d="M0 0H45V45H0V0Z"/>
<path d="M0 45H45V90H0V45Z"/>
<path d="M0 90H45V135H0V90Z"/>
<path d="M0 180H45V225H0V180Z"/>
<path d="M0 270H45V315H0V270Z"/>
<path d="M0 360H45V405H0V360Z"/>
<path d="M0 450H45V495H0V450Z"/>
<path d="M0 135H45V180H0V135Z"/>
<path d="M0 225H45V270H0V225Z"/>
<path d="M0 315H45V360H0V315Z"/>
<path d="M0 405H45V450H0V405Z"/>
<path d="M0 495H45V540H0V495Z"/>
<path d="M360 0H405V45H360V0Z"/>
<path d="M360 45H405V90H360V45Z"/>
<path d="M360 90H405V135H360V90Z"/>
<path d="M360 180H405V225H360V180Z"/>
<path d="M360 270H405V315H360V270Z"/>
<path d="M360 360H405V405H360V360Z"/>
<path d="M360 450H405V495H360V450Z"/>
<path d="M360 135H405V180H360V135Z"/>
<path d="M360 225H405V270H360V225Z"/>
<path d="M360 315H405V360H360V315Z"/>
<path d="M360 405H405V450H360V405Z"/>
<path d="M360 495H405V540H360V495Z"/>
<path d="M720 0H765V45H720V0Z"/>
<path d="M720 45H765V90H720V45Z"/>
<path d="M720 90H765V135H720V90Z"/>
<path d="M720 180H765V225H720V180Z"/>
<path d="M720 270H765V315H720V270Z"/>
<path d="M720 360H765V405H720V360Z"/>
<path d="M720 450H765V495H720V450Z"/>
<path d="M720 135H765V180H720V135Z"/>
<path d="M720 225H765V270H720V225Z"/>
<path d="M720 315H765V360H720V315Z"/>
<path d="M720 405H765V450H720V405Z"/>
<path d="M720 495H765V540H720V495Z"/>
<path d="M1080 0H1125V45H1080V0Z"/>
<path d="M1080 45H1125V90H1080V45Z"/>
<path d="M1080 90H1125V135H1080V90Z"/>
<path d="M1080 180H1125V225H1080V180Z"/>
<path d="M1080 270H1125V315H1080V270Z"/>
<path d="M1080 360H1125V405H1080V360Z"/>
<path d="M1080 450H1125V495H1080V450Z"/>
<path d="M1080 135H1125V180H1080V135Z"/>
<path d="M1080 225H1125V270H1080V225Z"/>
<path d="M1080 315H1125V360H1080V315Z"/>
<path d="M1080 405H1125V450H1080V405Z"/>
<path d="M1080 495H1125V540H1080V495Z"/>
<path d="M180 0H225V45H180V0Z"/>
<path d="M180 45H225V90H180V45Z"/>
<path d="M180 90H225V135H180V90Z"/>
<path d="M180 180H225V225H180V180Z"/>
<path d="M180 270H225V315H180V270Z"/>
<path d="M180 360H225V405H180V360Z"/>
<path d="M180 450H225V495H180V450Z"/>
<path d="M180 135H225V180H180V135Z"/>
<path d="M180 225H225V270H180V225Z"/>
<path d="M180 315H225V360H180V315Z"/>
<path d="M180 405H225V450H180V405Z"/>
<path d="M180 495H225V540H180V495Z"/>
<path d="M540 0H585V45H540V0Z"/>
<path d="M540 45H585V90H540V45Z"/>
<path d="M540 90H585V135H540V90Z"/>
<path d="M540 180H585V225H540V180Z"/>
<path d="M540 270H585V315H540V270Z"/>
<path d="M540 360H585V405H540V360Z"/>
<path d="M540 450H585V495H540V450Z"/>
<path d="M540 135H585V180H540V135Z"/>
<path d="M540 225H585V270H540V225Z"/>
<path d="M540 315H585V360H540V315Z"/>
<path d="M540 405H585V450H540V405Z"/>
<path d="M540 495H585V540H540V495Z"/>
<path d="M900 0H945V45H900V0Z"/>
<path d="M900 45H945V90H900V45Z"/>
<path d="M900 90H945V135H900V90Z"/>
<path d="M900 180H945V225H900V180Z"/>
<path d="M900 270H945V315H900V270Z"/>
<path d="M900 360H945V405H900V360Z"/>
<path d="M900 450H945V495H900V450Z"/>
<path d="M900 135H945V180H900V135Z"/>
<path d="M900 225H945V270H900V225Z"/>
<path d="M900 315H945V360H900V315Z"/>
<path d="M900 405H945V450H900V405Z"/>
<path d="M900 495H945V540H900V495Z"/>
<path d="M1260 0H1305V45H1260V0Z"/>
<path d="M1260 45H1305V90H1260V45Z"/>
<path d="M1260 90H1305V135H1260V90Z"/>
<path d="M1260 180H1305V225H1260V180Z"/>
<path d="M1260 270H1305V315H1260V270Z"/>
<path d="M1260 360H1305V405H1260V360Z"/>
<path d="M1260 450H1305V495H1260V450Z"/>
<path d="M1260 135H1305V180H1260V135Z"/>
<path d="M1260 225H1305V270H1260V225Z"/>
<path d="M1260 315H1305V360H1260V315Z"/>
<path d="M1260 405H1305V450H1260V405Z"/>
<path d="M1260 495H1305V540H1260V495Z"/>
<path d="M90 0H135V45H90V0Z"/>
<path d="M90 45H135V90H90V45Z"/>
<path d="M90 90H135V135H90V90Z"/>
<path d="M90 180H135V225H90V180Z"/>
<path d="M90 270H135V315H90V270Z"/>
<path d="M90 360H135V405H90V360Z"/>
<path d="M90 450H135V495H90V450Z"/>
<path d="M90 135H135V180H90V135Z"/>
<path d="M90 225H135V270H90V225Z"/>
<path d="M90 315H135V360H90V315Z"/>
<path d="M90 405H135V450H90V405Z"/>
<path d="M90 495H135V540H90V495Z"/>
<path d="M450 0H495V45H450V0Z"/>
<path d="M450 45H495V90H450V45Z"/>
<path d="M450 90H495V135H450V90Z"/>
<path d="M450 180H495V225H450V180Z"/>
<path d="M450 270H495V315H450V270Z"/>
<path d="M450 360H495V405H450V360Z"/>
<path d="M450 450H495V495H450V450Z"/>
<path d="M450 135H495V180H450V135Z"/>
<path d="M450 225H495V270H450V225Z"/>
<path d="M450 315H495V360H450V315Z"/>
<path d="M450 405H495V450H450V405Z"/>
<path d="M450 495H495V540H450V495Z"/>
<path d="M810 0H855V45H810V0Z"/>
<path d="M810 45H855V90H810V45Z"/>
<path d="M810 90H855V135H810V90Z"/>
<path d="M810 180H855V225H810V180Z"/>
<path d="M810 270H855V315H810V270Z"/>
<path d="M810 360H855V405H810V360Z"/>
<path d="M810 450H855V495H810V450Z"/>
<path d="M810 135H855V180H810V135Z"/>
<path d="M810 225H855V270H810V225Z"/>
<path d="M810 315H855V360H810V315Z"/>
<path d="M810 405H855V450H810V405Z"/>
<path d="M810 495H855V540H810V495Z"/>
<path d="M1170 0H1215V45H1170V0Z"/>
<path d="M1170 45H1215V90H1170V45Z"/>
<path d="M1170 90H1215V135H1170V90Z"/>
<path d="M1170 180H1215V225H1170V180Z"/>
<path d="M1170 270H1215V315H1170V270Z"/>
<path d="M1170 360H1215V405H1170V360Z"/>
<path d="M1170 450H1215V495H1170V450Z"/>
<path d="M1170 135H1215V180H1170V135Z"/>
<path d="M1170 225H1215V270H1170V225Z"/>
<path d="M1170 315H1215V360H1170V315Z"/>
<path d="M1170 405H1215V450H1170V405Z"/>
<path d="M1170 495H1215V540H1170V495Z"/>
<path d="M270 0H315V45H270V0Z"/>
<path d="M270 45H315V90H270V45Z"/>
<path d="M270 90H315V135H270V90Z"/>
<path d="M270 180H315V225H270V180Z"/>
<path d="M270 270H315V315H270V270Z"/>
<path d="M270 360H315V405H270V360Z"/>
<path d="M270 450H315V495H270V450Z"/>
<path d="M270 135H315V180H270V135Z"/>
<path d="M270 225H315V270H270V225Z"/>
<path d="M270 315H315V360H270V315Z"/>
<path d="M270 405H315V450H270V405Z"/>
<path d="M270 495H315V540H270V495Z"/>
<path d="M630 0H675V45H630V0Z"/>
<path d="M630 45H675V90H630V45Z"/>
<path d="M630 90H675V135H630V90Z"/>
<path d="M630 180H675V225H630V180Z"/>
<path d="M630 270H675V315H630V270Z"/>
<path d="M630 360H675V405H630V360Z"/>
<path d="M630 450H675V495H630V450Z"/>
<path d="M630 135H675V180H630V135Z"/>
<path d="M630 225H675V270H630V225Z"/>
<path d="M630 315H675V360H630V315Z"/>
<path d="M630 405H675V450H630V405Z"/>
<path d="M630 495H675V540H630V495Z"/>
<path d="M990 0H1035V45H990V0Z"/>
<path d="M990 45H1035V90H990V45Z"/>
<path d="M990 90H1035V135H990V90Z"/>
<path d="M990 180H1035V225H990V180Z"/>
<path d="M990 270H1035V315H990V270Z"/>
<path d="M990 360H1035V405H990V360Z"/>
<path d="M990 450H1035V495H990V450Z"/>
<path d="M990 135H1035V180H990V135Z"/>
<path d="M990 225H1035V270H990V225Z"/>
<path d="M990 315H1035V360H990V315Z"/>
<path d="M990 405H1035V450H990V405Z"/>
<path d="M990 495H1035V540H990V495Z"/>
<path d="M1350 0H1395V45H1350V0Z"/>
<path d="M1350 45H1395V90H1350V45Z"/>
<path d="M1350 90H1395V135H1350V90Z"/>
<path d="M1350 180H1395V225H1350V180Z"/>
<path d="M1350 270H1395V315H1350V270Z"/>
<path d="M1350 360H1395V405H1350V360Z"/>
<path d="M1350 450H1395V495H1350V450Z"/>
<path d="M1350 135H1395V180H1350V135Z"/>
<path d="M1350 225H1395V270H1350V225Z"/>
<path d="M1350 315H1395V360H1350V315Z"/>
<path d="M1350 405H1395V450H1350V405Z"/>
<path d="M1350 495H1395V540H1350V495Z"/>
<path d="M45 0H90V45H45V0Z"/>
<path d="M45 45H90V90H45V45Z"/>
<path d="M45 90H90V135H45V90Z"/>
<path d="M45 180H90V225H45V180Z"/>
<path d="M45 270H90V315H45V270Z"/>
<path d="M45 360H90V405H45V360Z"/>
<path d="M45 450H90V495H45V450Z"/>
<path d="M45 135H90V180H45V135Z"/>
<path d="M45 225H90V270H45V225Z"/>
<path d="M45 315H90V360H45V315Z"/>
<path d="M45 405H90V450H45V405Z"/>
<path d="M45 495H90V540H45V495Z"/>
<path d="M405 0H450V45H405V0Z"/>
<path d="M405 45H450V90H405V45Z"/>
<path d="M405 90H450V135H405V90Z"/>
<path d="M405 180H450V225H405V180Z"/>
<path d="M405 270H450V315H405V270Z"/>
<path d="M405 360H450V405H405V360Z"/>
<path d="M405 450H450V495H405V450Z"/>
<path d="M405 135H450V180H405V135Z"/>
<path d="M405 225H450V270H405V225Z"/>
<path d="M405 315H450V360H405V315Z"/>
<path d="M405 405H450V450H405V405Z"/>
<path d="M405 495H450V540H405V495Z"/>
<path d="M765 0H810V45H765V0Z"/>
<path d="M765 45H810V90H765V45Z"/>
<path d="M765 90H810V135H765V90Z"/>
<path d="M765 180H810V225H765V180Z"/>
<path d="M765 270H810V315H765V270Z"/>
<path d="M765 360H810V405H765V360Z"/>
<path d="M765 450H810V495H765V450Z"/>
<path d="M765 135H810V180H765V135Z"/>
<path d="M765 225H810V270H765V225Z"/>
<path d="M765 315H810V360H765V315Z"/>
<path d="M765 405H810V450H765V405Z"/>
<path d="M765 495H810V540H765V495Z"/>
<path d="M1125 0H1170V45H1125V0Z"/>
<path d="M1125 45H1170V90H1125V45Z"/>
<path d="M1125 90H1170V135H1125V90Z"/>
<path d="M1125 180H1170V225H1125V180Z"/>
<path d="M1125 270H1170V315H1125V270Z"/>
<path d="M1125 360H1170V405H1125V360Z"/>
<path d="M1125 450H1170V495H1125V450Z"/>
<path d="M1125 135H1170V180H1125V135Z"/>
<path d="M1125 225H1170V270H1125V225Z"/>
<path d="M1125 315H1170V360H1125V315Z"/>
<path d="M1125 405H1170V450H1125V405Z"/>
<path d="M1125 495H1170V540H1125V495Z"/>
<path d="M225 0H270V45H225V0Z"/>
<path d="M225 45H270V90H225V45Z"/>
<path d="M225 90H270V135H225V90Z"/>
<path d="M225 180H270V225H225V180Z"/>
<path d="M225 270H270V315H225V270Z"/>
<path d="M225 360H270V405H225V360Z"/>
<path d="M225 450H270V495H225V450Z"/>
<path d="M225 135H270V180H225V135Z"/>
<path d="M225 225H270V270H225V225Z"/>
<path d="M225 315H270V360H225V315Z"/>
<path d="M225 405H270V450H225V405Z"/>
<path d="M225 495H270V540H225V495Z"/>
<path d="M585 0H630V45H585V0Z"/>
<path d="M585 45H630V90H585V45Z"/>
<path d="M585 90H630V135H585V90Z"/>
<path d="M585 180H630V225H585V180Z"/>
<path d="M585 270H630V315H585V270Z"/>
<path d="M585 360H630V405H585V360Z"/>
<path d="M585 450H630V495H585V450Z"/>
<path d="M585 135H630V180H585V135Z"/>
<path d="M585 225H630V270H585V225Z"/>
<path d="M585 315H630V360H585V315Z"/>
<path d="M585 405H630V450H585V405Z"/>
<path d="M585 495H630V540H585V495Z"/>
<path d="M945 0H990V45H945V0Z"/>
<path d="M945 45H990V90H945V45Z"/>
<path d="M945 90H990V135H945V90Z"/>
<path d="M945 180H990V225H945V180Z"/>
<path d="M945 270H990V315H945V270Z"/>
<path d="M945 360H990V405H945V360Z"/>
<path d="M945 450H990V495H945V450Z"/>
<path d="M945 135H990V180H945V135Z"/>
<path d="M945 225H990V270H945V225Z"/>
<path d="M945 315H990V360H945V315Z"/>
<path d="M945 405H990V450H945V405Z"/>
<path d="M945 495H990V540H945V495Z"/>
<path d="M1305 0H1350V45H1305V0Z"/>
<path d="M1305 45H1350V90H1305V45Z"/>
<path d="M1305 90H1350V135H1305V90Z"/>
<path d="M1305 180H1350V225H1305V180Z"/>
<path d="M1305 270H1350V315H1305V270Z"/>
<path d="M1305 360H1350V405H1305V360Z"/>
<path d="M1305 450H1350V495H1305V450Z"/>
<path d="M1305 135H1350V180H1305V135Z"/>
<path d="M1305 225H1350V270H1305V225Z"/>
<path d="M1305 315H1350V360H1305V315Z"/>
<path d="M1305 405H1350V450H1305V405Z"/>
<path d="M1305 495H1350V540H1305V495Z"/>
<path d="M135 0H180V45H135V0Z"/>
<path d="M135 45H180V90H135V45Z"/>
<path d="M135 90H180V135H135V90Z"/>
<path d="M135 180H180V225H135V180Z"/>
<path d="M135 270H180V315H135V270Z"/>
<path d="M135 360H180V405H135V360Z"/>
<path d="M135 450H180V495H135V450Z"/>
<path d="M135 135H180V180H135V135Z"/>
<path d="M135 225H180V270H135V225Z"/>
<path d="M135 315H180V360H135V315Z"/>
<path d="M135 405H180V450H135V405Z"/>
<path d="M135 495H180V540H135V495Z"/>
<path d="M495 0H540V45H495V0Z"/>
<path d="M495 45H540V90H495V45Z"/>
<path d="M495 90H540V135H495V90Z"/>
<path d="M495 180H540V225H495V180Z"/>
<path d="M495 270H540V315H495V270Z"/>
<path d="M495 360H540V405H495V360Z"/>
<path d="M495 450H540V495H495V450Z"/>
<path d="M495 135H540V180H495V135Z"/>
<path d="M495 225H540V270H495V225Z"/>
<path d="M495 315H540V360H495V315Z"/>
<path d="M495 405H540V450H495V405Z"/>
<path d="M495 495H540V540H495V495Z"/>
<path d="M855 0H900V45H855V0Z"/>
<path d="M855 45H900V90H855V45Z"/>
<path d="M855 90H900V135H855V90Z"/>
<path d="M855 180H900V225H855V180Z"/>
<path d="M855 270H900V315H855V270Z"/>
<path d="M855 360H900V405H855V360Z"/>
<path d="M855 450H900V495H855V450Z"/>
<path d="M855 135H900V180H855V135Z"/>
<path d="M855 225H900V270H855V225Z"/>
<path d="M855 315H900V360H855V315Z"/>
<path d="M855 405H900V450H855V405Z"/>
<path d="M855 495H900V540H855V495Z"/>
<path d="M1215 0H1260V45H1215V0Z"/>
<path d="M1215 45H1260V90H1215V45Z"/>
<path d="M1215 90H1260V135H1215V90Z"/>
<path d="M1215 180H1260V225H1215V180Z"/>
<path d="M1215 270H1260V315H1215V270Z"/>
<path d="M1215 360H1260V405H1215V360Z"/>
<path d="M1215 450H1260V495H1215V450Z"/>
<path d="M1215 135H1260V180H1215V135Z"/>
<path d="M1215 225H1260V270H1215V225Z"/>
<path d="M1215 315H1260V360H1215V315Z"/>
<path d="M1215 405H1260V450H1215V405Z"/>
<path d="M1215 495H1260V540H1215V495Z"/>
<path d="M315 0H360V45H315V0Z"/>
<path d="M315 45H360V90H315V45Z"/>
<path d="M315 90H360V135H315V90Z"/>
<path d="M315 180H360V225H315V180Z"/>
<path d="M315 270H360V315H315V270Z"/>
<path d="M315 360H360V405H315V360Z"/>
<path d="M315 450H360V495H315V450Z"/>
<path d="M315 135H360V180H315V135Z"/>
<path d="M315 225H360V270H315V225Z"/>
<path d="M315 315H360V360H315V315Z"/>
<path d="M315 405H360V450H315V405Z"/>
<path d="M315 495H360V540H315V495Z"/>
<path d="M675 0H720V45H675V0Z"/>
<path d="M675 45H720V90H675V45Z"/>
<path d="M675 90H720V135H675V90Z"/>
<path d="M675 180H720V225H675V180Z"/>
<path d="M675 270H720V315H675V270Z"/>
<path d="M675 360H720V405H675V360Z"/>
<path d="M675 450H720V495H675V450Z"/>
<path d="M675 135H720V180H675V135Z"/>
<path d="M675 225H720V270H675V225Z"/>
<path d="M675 315H720V360H675V315Z"/>
<path d="M675 405H720V450H675V405Z"/>
<path d="M675 495H720V540H675V495Z"/>
<path d="M1035 0H1080V45H1035V0Z"/>
<path d="M1035 45H1080V90H1035V45Z"/>
<path d="M1035 90H1080V135H1035V90Z"/>
<path d="M1035 180H1080V225H1035V180Z"/>
<path d="M1035 270H1080V315H1035V270Z"/>
<path d="M1035 360H1080V405H1035V360Z"/>
<path d="M1035 450H1080V495H1035V450Z"/>
<path d="M1035 135H1080V180H1035V135Z"/>
<path d="M1035 225H1080V270H1035V225Z"/>
<path d="M1035 315H1080V360H1035V315Z"/>
<path d="M1035 405H1080V450H1035V405Z"/>
<path d="M1035 495H1080V540H1035V495Z"/>
<path d="M1395 0H1440V45H1395V0Z"/>
<path d="M1395 45H1440V90H1395V45Z"/>
<path d="M1395 90H1440V135H1395V90Z"/>
<path d="M1395 180H1440V225H1395V180Z"/>
<path d="M1395 270H1440V315H1395V270Z"/>
<path d="M1395 360H1440V405H1395V360Z"/>
<path d="M1395 450H1440V495H1395V450Z"/>
<path d="M1395 135H1440V180H1395V135Z"/>
<path d="M1395 225H1440V270H1395V225Z"/>
<path d="M1395 315H1440V360H1395V315Z"/>
<path d="M1395 405H1440V450H1395V405Z"/>
<path d="M1395 495H1440V540H1395V495Z"/>
</mask>
<path d="M45 0H44.85V45H45H45.15V0H45ZM45 45V44.85H0V45V45.15H45V45ZM45 45H44.85V90H45H45.15V45H45ZM45 90V89.85H0V90V90.15H45V90ZM45 90H44.85V135H45H45.15V90H45ZM45 135V134.85H0V135V135.15H45V135ZM0 180V180.15H45V180V179.85H0V180ZM45 180H44.85V225H45H45.15V180H45ZM45 225V224.85H0V225V225.15H45V225ZM0 270V270.15H45V270V269.85H0V270ZM45 270H44.85V315H45H45.15V270H45ZM45 315V314.85H0V315V315.15H45V315ZM0 360V360.15H45V360V359.85H0V360ZM45 360H44.85V405H45H45.15V360H45ZM45 405V404.85H0V405V405.15H45V405ZM0 450V450.15H45V450V449.85H0V450ZM45 450H44.85V495H45H45.15V450H45ZM45 495V494.85H0V495V495.15H45V495ZM45 135H44.85V180H45H45.15V135H45ZM45 225H44.85V270H45H45.15V225H45ZM45 315H44.85V360H45H45.15V315H45ZM45 405H44.85V450H45H45.15V405H45ZM45 495H44.85V540H45H45.15V495H45ZM405 0H404.85V45H405H405.15V0H405ZM405 45V44.85H360V45V45.15H405V45ZM360 45H360.15V0H360H359.85V45H360ZM405 45H404.85V90H405H405.15V45H405ZM405 90V89.85H360V90V90.15H405V90ZM360 90H360.15V45H360H359.85V90H360ZM405 90H404.85V135H405H405.15V90H405ZM405 135V134.85H360V135V135.15H405V135ZM360 135H360.15V90H360H359.85V135H360ZM360 180V180.15H405V180V179.85H360V180ZM405 180H404.85V225H405H405.15V180H405ZM405 225V224.85H360V225V225.15H405V225ZM360 225H360.15V180H360H359.85V225H360ZM360 270V270.15H405V270V269.85H360V270ZM405 270H404.85V315H405H405.15V270H405ZM405 315V314.85H360V315V315.15H405V315ZM360 315H360.15V270H360H359.85V315H360ZM360 360V360.15H405V360V359.85H360V360ZM405 360H404.85V405H405H405.15V360H405ZM405 405V404.85H360V405V405.15H405V405ZM360 405H360.15V360H360H359.85V405H360ZM360 450V450.15H405V450V449.85H360V450ZM405 450H404.85V495H405H405.15V450H405ZM405 495V494.85H360V495V495.15H405V495ZM360 495H360.15V450H360H359.85V495H360ZM405 135H404.85V180H405H405.15V135H405ZM360 180H360.15V135H360H359.85V180H360ZM405 225H404.85V270H405H405.15V225H405ZM360 270H360.15V225H360H359.85V270H360ZM405 315H404.85V360H405H405.15V315H405ZM360 360H360.15V315H360H359.85V360H360ZM405 405H404.85V450H405H405.15V405H405ZM360 450H360.15V405H360H359.85V450H360ZM405 495H404.85V540H405H405.15V495H405ZM360 540H360.15V495H360H359.85V540H360ZM765 0H764.85V45H765H765.15V0H765ZM765 45V44.85H720V45V45.15H765V45ZM720 45H720.15V0H720H719.85V45H720ZM765 45H764.85V90H765H765.15V45H765ZM765 90V89.85H720V90V90.15H765V90ZM720 90H720.15V45H720H719.85V90H720ZM765 90H764.85V135H765H765.15V90H765ZM765 135V134.85H720V135V135.15H765V135ZM720 135H720.15V90H720H719.85V135H720ZM720 180V180.15H765V180V179.85H720V180ZM765 180H764.85V225H765H765.15V180H765ZM765 225V224.85H720V225V225.15H765V225ZM720 225H720.15V180H720H719.85V225H720ZM720 270V270.15H765V270V269.85H720V270ZM765 270H764.85V315H765H765.15V270H765ZM765 315V314.85H720V315V315.15H765V315ZM720 315H720.15V270H720H719.85V315H720ZM720 360V360.15H765V360V359.85H720V360ZM765 360H764.85V405H765H765.15V360H765ZM765 405V404.85H720V405V405.15H765V405ZM720 405H720.15V360H720H719.85V405H720ZM720 450V450.15H765V450V449.85H720V450ZM765 450H764.85V495H765H765.15V450H765ZM765 495V494.85H720V495V495.15H765V495ZM720 495H720.15V450H720H719.85V495H720ZM765 135H764.85V180H765H765.15V135H765ZM720 180H720.15V135H720H719.85V180H720ZM765 225H764.85V270H765H765.15V225H765ZM720 270H720.15V225H720H719.85V270H720ZM765 315H764.85V360H765H765.15V315H765ZM720 360H720.15V315H720H719.85V360H720ZM765 405H764.85V450H765H765.15V405H765ZM720 450H720.15V405H720H719.85V450H720ZM765 495H764.85V540H765H765.15V495H765ZM720 540H720.15V495H720H719.85V540H720ZM1125 0H1124.85V45H1125H1125.15V0H1125ZM1125 45V44.85H1080V45V45.15H1125V45ZM1080 45H1080.15V0H1080H1079.85V45H1080ZM1125 45H1124.85V90H1125H1125.15V45H1125ZM1125 90V89.85H1080V90V90.15H1125V90ZM1080 90H1080.15V45H1080H1079.85V90H1080ZM1125 90H1124.85V135H1125H1125.15V90H1125ZM1125 135V134.85H1080V135V135.15H1125V135ZM1080 135H1080.15V90H1080H1079.85V135H1080ZM1080 180V180.15H1125V180V179.85H1080V180ZM1125 180H1124.85V225H1125H1125.15V180H1125ZM1125 225V224.85H1080V225V225.15H1125V225ZM1080 225H1080.15V180H1080H1079.85V225H1080ZM1080 270V270.15H1125V270V269.85H1080V270ZM1125 270H1124.85V315H1125H1125.15V270H1125ZM1125 315V314.85H1080V315V315.15H1125V315ZM1080 315H1080.15V270H1080H1079.85V315H1080ZM1080 360V360.15H1125V360V359.85H1080V360ZM1125 360H1124.85V405H1125H1125.15V360H1125ZM1125 405V404.85H1080V405V405.15H1125V405ZM1080 405H1080.15V360H1080H1079.85V405H1080ZM1080 450V450.15H1125V450V449.85H1080V450ZM1125 450H1124.85V495H1125H1125.15V450H1125ZM1125 495V494.85H1080V495V495.15H1125V495ZM1080 495H1080.15V450H1080H1079.85V495H1080ZM1125 135H1124.85V180H1125H1125.15V135H1125ZM1080 180H1080.15V135H1080H1079.85V180H1080ZM1125 225H1124.85V270H1125H1125.15V225H1125ZM1080 270H1080.15V225H1080H1079.85V270H1080ZM1125 315H1124.85V360H1125H1125.15V315H1125ZM1080 360H1080.15V315H1080H1079.85V360H1080ZM1125 405H1124.85V450H1125H1125.15V405H1125ZM1080 450H1080.15V405H1080H1079.85V450H1080ZM1125 495H1124.85V540H1125H1125.15V495H1125ZM1080 540H1080.15V495H1080H1079.85V540H1080ZM225 0H224.85V45H225H225.15V0H225ZM225 45V44.85H180V45V45.15H225V45ZM180 45H180.15V0H180H179.85V45H180ZM225 45H224.85V90H225H225.15V45H225ZM225 90V89.85H180V90V90.15H225V90ZM180 90H180.15V45H180H179.85V90H180ZM225 90H224.85V135H225H225.15V90H225ZM225 135V134.85H180V135V135.15H225V135ZM180 135H180.15V90H180H179.85V135H180ZM180 180V180.15H225V180V179.85H180V180ZM225 180H224.85V225H225H225.15V180H225ZM225 225V224.85H180V225V225.15H225V225ZM180 225H180.15V180H180H179.85V225H180ZM180 270V270.15H225V270V269.85H180V270ZM225 270H224.85V315H225H225.15V270H225ZM225 315V314.85H180V315V315.15H225V315ZM180 315H180.15V270H180H179.85V315H180ZM180 360V360.15H225V360V359.85H180V360ZM225 360H224.85V405H225H225.15V360H225ZM225 405V404.85H180V405V405.15H225V405ZM180 405H180.15V360H180H179.85V405H180ZM180 450V450.15H225V450V449.85H180V450ZM225 450H224.85V495H225H225.15V450H225ZM225 495V494.85H180V495V495.15H225V495ZM180 495H180.15V450H180H179.85V495H180ZM225 135H224.85V180H225H225.15V135H225ZM180 180H180.15V135H180H179.85V180H180ZM225 225H224.85V270H225H225.15V225H225ZM180 270H180.15V225H180H179.85V270H180ZM225 315H224.85V360H225H225.15V315H225ZM180 360H180.15V315H180H179.85V360H180ZM225 405H224.85V450H225H225.15V405H225ZM180 450H180.15V405H180H179.85V450H180ZM225 495H224.85V540H225H225.15V495H225ZM180 540H180.15V495H180H179.85V540H180ZM585 0H584.85V45H585H585.15V0H585ZM585 45V44.85H540V45V45.15H585V45ZM540 45H540.15V0H540H539.85V45H540ZM585 45H584.85V90H585H585.15V45H585ZM585 90V89.85H540V90V90.15H585V90ZM540 90H540.15V45H540H539.85V90H540ZM585 90H584.85V135H585H585.15V90H585ZM585 135V134.85H540V135V135.15H585V135ZM540 135H540.15V90H540H539.85V135H540ZM540 180V180.15H585V180V179.85H540V180ZM585 180H584.85V225H585H585.15V180H585ZM585 225V224.85H540V225V225.15H585V225ZM540 225H540.15V180H540H539.85V225H540ZM540 270V270.15H585V270V269.85H540V270ZM585 270H584.85V315H585H585.15V270H585ZM585 315V314.85H540V315V315.15H585V315ZM540 315H540.15V270H540H539.85V315H540ZM540 360V360.15H585V360V359.85H540V360ZM585 360H584.85V405H585H585.15V360H585ZM585 405V404.85H540V405V405.15H585V405ZM540 405H540.15V360H540H539.85V405H540ZM540 450V450.15H585V450V449.85H540V450ZM585 450H584.85V495H585H585.15V450H585ZM585 495V494.85H540V495V495.15H585V495ZM540 495H540.15V450H540H539.85V495H540ZM585 135H584.85V180H585H585.15V135H585ZM540 180H540.15V135H540H539.85V180H540ZM585 225H584.85V270H585H585.15V225H585ZM540 270H540.15V225H540H539.85V270H540ZM585 315H584.85V360H585H585.15V315H585ZM540 360H540.15V315H540H539.85V360H540ZM585 405H584.85V450H585H585.15V405H585ZM540 450H540.15V405H540H539.85V450H540ZM585 495H584.85V540H585H585.15V495H585ZM540 540H540.15V495H540H539.85V540H540ZM945 0H944.85V45H945H945.15V0H945ZM945 45V44.85H900V45V45.15H945V45ZM900 45H900.15V0H900H899.85V45H900ZM945 45H944.85V90H945H945.15V45H945ZM945 90V89.85H900V90V90.15H945V90ZM900 90H900.15V45H900H899.85V90H900ZM945 90H944.85V135H945H945.15V90H945ZM945 135V134.85H900V135V135.15H945V135ZM900 135H900.15V90H900H899.85V135H900ZM900 180V180.15H945V180V179.85H900V180ZM945 180H944.85V225H945H945.15V180H945ZM945 225V224.85H900V225V225.15H945V225ZM900 225H900.15V180H900H899.85V225H900ZM900 270V270.15H945V270V269.85H900V270ZM945 270H944.85V315H945H945.15V270H945ZM945 315V314.85H900V315V315.15H945V315ZM900 315H900.15V270H900H899.85V315H900ZM900 360V360.15H945V360V359.85H900V360ZM945 360H944.85V405H945H945.15V360H945ZM945 405V404.85H900V405V405.15H945V405ZM900 405H900.15V360H900H899.85V405H900ZM900 450V450.15H945V450V449.85H900V450ZM945 450H944.85V495H945H945.15V450H945ZM945 495V494.85H900V495V495.15H945V495ZM900 495H900.15V450H900H899.85V495H900ZM945 135H944.85V180H945H945.15V135H945ZM900 180H900.15V135H900H899.85V180H900ZM945 225H944.85V270H945H945.15V225H945ZM900 270H900.15V225H900H899.85V270H900ZM945 315H944.85V360H945H945.15V315H945ZM900 360H900.15V315H900H899.85V360H900ZM945 405H944.85V450H945H945.15V405H945ZM900 450H900.15V405H900H899.85V450H900ZM945 495H944.85V540H945H945.15V495H945ZM900 540H900.15V495H900H899.85V540H900ZM1305 0H1304.85V45H1305H1305.15V0H1305ZM1305 45V44.85H1260V45V45.15H1305V45ZM1260 45H1260.15V0H1260H1259.85V45H1260ZM1305 45H1304.85V90H1305H1305.15V45H1305ZM1305 90V89.85H1260V90V90.15H1305V90ZM1260 90H1260.15V45H1260H1259.85V90H1260ZM1305 90H1304.85V135H1305H1305.15V90H1305ZM1305 135V134.85H1260V135V135.15H1305V135ZM1260 135H1260.15V90H1260H1259.85V135H1260ZM1260 180V180.15H1305V180V179.85H1260V180ZM1305 180H1304.85V225H1305H1305.15V180H1305ZM1305 225V224.85H1260V225V225.15H1305V225ZM1260 225H1260.15V180H1260H1259.85V225H1260ZM1260 270V270.15H1305V270V269.85H1260V270ZM1305 270H1304.85V315H1305H1305.15V270H1305ZM1305 315V314.85H1260V315V315.15H1305V315ZM1260 315H1260.15V270H1260H1259.85V315H1260ZM1260 360V360.15H1305V360V359.85H1260V360ZM1305 360H1304.85V405H1305H1305.15V360H1305ZM1305 405V404.85H1260V405V405.15H1305V405ZM1260 405H1260.15V360H1260H1259.85V405H1260ZM1260 450V450.15H1305V450V449.85H1260V450ZM1305 450H1304.85V495H1305H1305.15V450H1305ZM1305 495V494.85H1260V495V495.15H1305V495ZM1260 495H1260.15V450H1260H1259.85V495H1260ZM1305 135H1304.85V180H1305H1305.15V135H1305ZM1260 180H1260.15V135H1260H1259.85V180H1260ZM1305 225H1304.85V270H1305H1305.15V225H1305ZM1260 270H1260.15V225H1260H1259.85V270H1260ZM1305 315H1304.85V360H1305H1305.15V315H1305ZM1260 360H1260.15V315H1260H1259.85V360H1260ZM1305 405H1304.85V450H1305H1305.15V405H1305ZM1260 450H1260.15V405H1260H1259.85V450H1260ZM1305 495H1304.85V540H1305H1305.15V495H1305ZM1260 540H1260.15V495H1260H1259.85V540H1260ZM135 0H134.85V45H135H135.15V0H135ZM135 45V44.85H90V45V45.15H135V45ZM90 45H90.15V0H90H89.85V45H90ZM135 45H134.85V90H135H135.15V45H135ZM135 90V89.85H90V90V90.15H135V90ZM90 90H90.15V45H90H89.85V90H90ZM135 90H134.85V135H135H135.15V90H135ZM135 135V134.85H90V135V135.15H135V135ZM90 135H90.15V90H90H89.85V135H90ZM90 180V180.15H135V180V179.85H90V180ZM135 180H134.85V225H135H135.15V180H135ZM135 225V224.85H90V225V225.15H135V225ZM90 225H90.15V180H90H89.85V225H90ZM90 270V270.15H135V270V269.85H90V270ZM135 270H134.85V315H135H135.15V270H135ZM135 315V314.85H90V315V315.15H135V315ZM90 315H90.15V270H90H89.85V315H90ZM90 360V360.15H135V360V359.85H90V360ZM135 360H134.85V405H135H135.15V360H135ZM135 405V404.85H90V405V405.15H135V405ZM90 405H90.15V360H90H89.85V405H90ZM90 450V450.15H135V450V449.85H90V450ZM135 450H134.85V495H135H135.15V450H135ZM135 495V494.85H90V495V495.15H135V495ZM90 495H90.15V450H90H89.85V495H90ZM135 135H134.85V180H135H135.15V135H135ZM90 180H90.15V135H90H89.85V180H90ZM135 225H134.85V270H135H135.15V225H135ZM90 270H90.15V225H90H89.85V270H90ZM135 315H134.85V360H135H135.15V315H135ZM90 360H90.15V315H90H89.85V360H90ZM135 405H134.85V450H135H135.15V405H135ZM90 450H90.15V405H90H89.85V450H90ZM135 495H134.85V540H135H135.15V495H135ZM90 540H90.15V495H90H89.85V540H90ZM495 0H494.85V45H495H495.15V0H495ZM495 45V44.85H450V45V45.15H495V45ZM450 45H450.15V0H450H449.85V45H450ZM495 45H494.85V90H495H495.15V45H495ZM495 90V89.85H450V90V90.15H495V90ZM450 90H450.15V45H450H449.85V90H450ZM495 90H494.85V135H495H495.15V90H495ZM495 135V134.85H450V135V135.15H495V135ZM450 135H450.15V90H450H449.85V135H450ZM450 180V180.15H495V180V179.85H450V180ZM495 180H494.85V225H495H495.15V180H495ZM495 225V224.85H450V225V225.15H495V225ZM450 225H450.15V180H450H449.85V225H450ZM450 270V270.15H495V270V269.85H450V270ZM495 270H494.85V315H495H495.15V270H495ZM495 315V314.85H450V315V315.15H495V315ZM450 315H450.15V270H450H449.85V315H450ZM450 360V360.15H495V360V359.85H450V360ZM495 360H494.85V405H495H495.15V360H495ZM495 405V404.85H450V405V405.15H495V405ZM450 405H450.15V360H450H449.85V405H450ZM450 450V450.15H495V450V449.85H450V450ZM495 450H494.85V495H495H495.15V450H495ZM495 495V494.85H450V495V495.15H495V495ZM450 495H450.15V450H450H449.85V495H450ZM495 135H494.85V180H495H495.15V135H495ZM450 180H450.15V135H450H449.85V180H450ZM495 225H494.85V270H495H495.15V225H495ZM450 270H450.15V225H450H449.85V270H450ZM495 315H494.85V360H495H495.15V315H495ZM450 360H450.15V315H450H449.85V360H450ZM495 405H494.85V450H495H495.15V405H495ZM450 450H450.15V405H450H449.85V450H450ZM495 495H494.85V540H495H495.15V495H495ZM450 540H450.15V495H450H449.85V540H450ZM855 0H854.85V45H855H855.15V0H855ZM855 45V44.85H810V45V45.15H855V45ZM810 45H810.15V0H810H809.85V45H810ZM855 45H854.85V90H855H855.15V45H855ZM855 90V89.85H810V90V90.15H855V90ZM810 90H810.15V45H810H809.85V90H810ZM855 90H854.85V135H855H855.15V90H855ZM855 135V134.85H810V135V135.15H855V135ZM810 135H810.15V90H810H809.85V135H810ZM810 180V180.15H855V180V179.85H810V180ZM855 180H854.85V225H855H855.15V180H855ZM855 225V224.85H810V225V225.15H855V225ZM810 225H810.15V180H810H809.85V225H810ZM810 270V270.15H855V270V269.85H810V270ZM855 270H854.85V315H855H855.15V270H855ZM855 315V314.85H810V315V315.15H855V315ZM810 315H810.15V270H810H809.85V315H810ZM810 360V360.15H855V360V359.85H810V360ZM855 360H854.85V405H855H855.15V360H855ZM855 405V404.85H810V405V405.15H855V405ZM810 405H810.15V360H810H809.85V405H810ZM810 450V450.15H855V450V449.85H810V450ZM855 450H854.85V495H855H855.15V450H855ZM855 495V494.85H810V495V495.15H855V495ZM810 495H810.15V450H810H809.85V495H810ZM855 135H854.85V180H855H855.15V135H855ZM810 180H810.15V135H810H809.85V180H810ZM855 225H854.85V270H855H855.15V225H855ZM810 270H810.15V225H810H809.85V270H810ZM855 315H854.85V360H855H855.15V315H855ZM810 360H810.15V315H810H809.85V360H810ZM855 405H854.85V450H855H855.15V405H855ZM810 450H810.15V405H810H809.85V450H810ZM855 495H854.85V540H855H855.15V495H855ZM810 540H810.15V495H810H809.85V540H810ZM1215 0H1214.85V45H1215H1215.15V0H1215ZM1215 45V44.85H1170V45V45.15H1215V45ZM1170 45H1170.15V0H1170H1169.85V45H1170ZM1215 45H1214.85V90H1215H1215.15V45H1215ZM1215 90V89.85H1170V90V90.15H1215V90ZM1170 90H1170.15V45H1170H1169.85V90H1170ZM1215 90H1214.85V135H1215H1215.15V90H1215ZM1215 135V134.85H1170V135V135.15H1215V135ZM1170 135H1170.15V90H1170H1169.85V135H1170ZM1170 180V180.15H1215V180V179.85H1170V180ZM1215 180H1214.85V225H1215H1215.15V180H1215ZM1215 225V224.85H1170V225V225.15H1215V225ZM1170 225H1170.15V180H1170H1169.85V225H1170ZM1170 270V270.15H1215V270V269.85H1170V270ZM1215 270H1214.85V315H1215H1215.15V270H1215ZM1215 315V314.85H1170V315V315.15H1215V315ZM1170 315H1170.15V270H1170H1169.85V315H1170ZM1170 360V360.15H1215V360V359.85H1170V360ZM1215 360H1214.85V405H1215H1215.15V360H1215ZM1215 405V404.85H1170V405V405.15H1215V405ZM1170 405H1170.15V360H1170H1169.85V405H1170ZM1170 450V450.15H1215V450V449.85H1170V450ZM1215 450H1214.85V495H1215H1215.15V450H1215ZM1215 495V494.85H1170V495V495.15H1215V495ZM1170 495H1170.15V450H1170H1169.85V495H1170ZM1215 135H1214.85V180H1215H1215.15V135H1215ZM1170 180H1170.15V135H1170H1169.85V180H1170ZM1215 225H1214.85V270H1215H1215.15V225H1215ZM1170 270H1170.15V225H1170H1169.85V270H1170ZM1215 315H1214.85V360H1215H1215.15V315H1215ZM1170 360H1170.15V315H1170H1169.85V360H1170ZM1215 405H1214.85V450H1215H1215.15V405H1215ZM1170 450H1170.15V405H1170H1169.85V450H1170ZM1215 495H1214.85V540H1215H1215.15V495H1215ZM1170 540H1170.15V495H1170H1169.85V540H1170ZM315 0H314.85V45H315H315.15V0H315ZM315 45V44.85H270V45V45.15H315V45ZM270 45H270.15V0H270H269.85V45H270ZM315 45H314.85V90H315H315.15V45H315ZM315 90V89.85H270V90V90.15H315V90ZM270 90H270.15V45H270H269.85V90H270ZM315 90H314.85V135H315H315.15V90H315ZM315 135V134.85H270V135V135.15H315V135ZM270 135H270.15V90H270H269.85V135H270ZM270 180V180.15H315V180V179.85H270V180ZM315 180H314.85V225H315H315.15V180H315ZM315 225V224.85H270V225V225.15H315V225ZM270 225H270.15V180H270H269.85V225H270ZM270 270V270.15H315V270V269.85H270V270ZM315 270H314.85V315H315H315.15V270H315ZM315 315V314.85H270V315V315.15H315V315ZM270 315H270.15V270H270H269.85V315H270ZM270 360V360.15H315V360V359.85H270V360ZM315 360H314.85V405H315H315.15V360H315ZM315 405V404.85H270V405V405.15H315V405ZM270 405H270.15V360H270H269.85V405H270ZM270 450V450.15H315V450V449.85H270V450ZM315 450H314.85V495H315H315.15V450H315ZM315 495V494.85H270V495V495.15H315V495ZM270 495H270.15V450H270H269.85V495H270ZM315 135H314.85V180H315H315.15V135H315ZM270 180H270.15V135H270H269.85V180H270ZM315 225H314.85V270H315H315.15V225H315ZM270 270H270.15V225H270H269.85V270H270ZM315 315H314.85V360H315H315.15V315H315ZM270 360H270.15V315H270H269.85V360H270ZM315 405H314.85V450H315H315.15V405H315ZM270 450H270.15V405H270H269.85V450H270ZM315 495H314.85V540H315H315.15V495H315ZM270 540H270.15V495H270H269.85V540H270ZM675 0H674.85V45H675H675.15V0H675ZM675 45V44.85H630V45V45.15H675V45ZM630 45H630.15V0H630H629.85V45H630ZM675 45H674.85V90H675H675.15V45H675ZM675 90V89.85H630V90V90.15H675V90ZM630 90H630.15V45H630H629.85V90H630ZM675 90H674.85V135H675H675.15V90H675ZM675 135V134.85H630V135V135.15H675V135ZM630 135H630.15V90H630H629.85V135H630ZM630 180V180.15H675V180V179.85H630V180ZM675 180H674.85V225H675H675.15V180H675ZM675 225V224.85H630V225V225.15H675V225ZM630 225H630.15V180H630H629.85V225H630ZM630 270V270.15H675V270V269.85H630V270ZM675 270H674.85V315H675H675.15V270H675ZM675 315V314.85H630V315V315.15H675V315ZM630 315H630.15V270H630H629.85V315H630ZM630 360V360.15H675V360V359.85H630V360ZM675 360H674.85V405H675H675.15V360H675ZM675 405V404.85H630V405V405.15H675V405ZM630 405H630.15V360H630H629.85V405H630ZM630 450V450.15H675V450V449.85H630V450ZM675 450H674.85V495H675H675.15V450H675ZM675 495V494.85H630V495V495.15H675V495ZM630 495H630.15V450H630H629.85V495H630ZM675 135H674.85V180H675H675.15V135H675ZM630 180H630.15V135H630H629.85V180H630ZM675 225H674.85V270H675H675.15V225H675ZM630 270H630.15V225H630H629.85V270H630ZM675 315H674.85V360H675H675.15V315H675ZM630 360H630.15V315H630H629.85V360H630ZM675 405H674.85V450H675H675.15V405H675ZM630 450H630.15V405H630H629.85V450H630ZM675 495H674.85V540H675H675.15V495H675ZM630 540H630.15V495H630H629.85V540H630ZM1035 0H1034.85V45H1035H1035.15V0H1035ZM1035 45V44.85H990V45V45.15H1035V45ZM990 45H990.15V0H990H989.85V45H990ZM1035 45H1034.85V90H1035H1035.15V45H1035ZM1035 90V89.85H990V90V90.15H1035V90ZM990 90H990.15V45H990H989.85V90H990ZM1035 90H1034.85V135H1035H1035.15V90H1035ZM1035 135V134.85H990V135V135.15H1035V135ZM990 135H990.15V90H990H989.85V135H990ZM990 180V180.15H1035V180V179.85H990V180ZM1035 180H1034.85V225H1035H1035.15V180H1035ZM1035 225V224.85H990V225V225.15H1035V225ZM990 225H990.15V180H990H989.85V225H990ZM990 270V270.15H1035V270V269.85H990V270ZM1035 270H1034.85V315H1035H1035.15V270H1035ZM1035 315V314.85H990V315V315.15H1035V315ZM990 315H990.15V270H990H989.85V315H990ZM990 360V360.15H1035V360V359.85H990V360ZM1035 360H1034.85V405H1035H1035.15V360H1035ZM1035 405V404.85H990V405V405.15H1035V405ZM990 405H990.15V360H990H989.85V405H990ZM990 450V450.15H1035V450V449.85H990V450ZM1035 450H1034.85V495H1035H1035.15V450H1035ZM1035 495V494.85H990V495V495.15H1035V495ZM990 495H990.15V450H990H989.85V495H990ZM1035 135H1034.85V180H1035H1035.15V135H1035ZM990 180H990.15V135H990H989.85V180H990ZM1035 225H1034.85V270H1035H1035.15V225H1035ZM990 270H990.15V225H990H989.85V270H990ZM1035 315H1034.85V360H1035H1035.15V315H1035ZM990 360H990.15V315H990H989.85V360H990ZM1035 405H1034.85V450H1035H1035.15V405H1035ZM990 450H990.15V405H990H989.85V450H990ZM1035 495H1034.85V540H1035H1035.15V495H1035ZM990 540H990.15V495H990H989.85V540H990ZM1395 0H1394.85V45H1395H1395.15V0H1395ZM1395 45V44.85H1350V45V45.15H1395V45ZM1350 45H1350.15V0H1350H1349.85V45H1350ZM1395 45H1394.85V90H1395H1395.15V45H1395ZM1395 90V89.85H1350V90V90.15H1395V90ZM1350 90H1350.15V45H1350H1349.85V90H1350ZM1395 90H1394.85V135H1395H1395.15V90H1395ZM1395 135V134.85H1350V135V135.15H1395V135ZM1350 135H1350.15V90H1350H1349.85V135H1350ZM1350 180V180.15H1395V180V179.85H1350V180ZM1395 180H1394.85V225H1395H1395.15V180H1395ZM1395 225V224.85H1350V225V225.15H1395V225ZM1350 225H1350.15V180H1350H1349.85V225H1350ZM1350 270V270.15H1395V270V269.85H1350V270ZM1395 270H1394.85V315H1395H1395.15V270H1395ZM1395 315V314.85H1350V315V315.15H1395V315ZM1350 315H1350.15V270H1350H1349.85V315H1350ZM1350 360V360.15H1395V360V359.85H1350V360ZM1395 360H1394.85V405H1395H1395.15V360H1395ZM1395 405V404.85H1350V405V405.15H1395V405ZM1350 405H1350.15V360H1350H1349.85V405H1350ZM1350 450V450.15H1395V450V449.85H1350V450ZM1395 450H1394.85V495H1395H1395.15V450H1395ZM1395 495V494.85H1350V495V495.15H1395V495ZM1350 495H1350.15V450H1350H1349.85V495H1350ZM1395 135H1394.85V180H1395H1395.15V135H1395ZM1350 180H1350.15V135H1350H1349.85V180H1350ZM1395 225H1394.85V270H1395H1395.15V225H1395ZM1350 270H1350.15V225H1350H1349.85V270H1350ZM1395 315H1394.85V360H1395H1395.15V315H1395ZM1350 360H1350.15V315H1350H1349.85V360H1350ZM1395 405H1394.85V450H1395H1395.15V405H1395ZM1350 450H1350.15V405H1350H1349.85V450H1350ZM1395 495H1394.85V540H1395H1395.15V495H1395ZM1350 540H1350.15V495H1350H1349.85V540H1350ZM90 45V44.85H45V45V45.15H90V45ZM90 90V89.85H45V90V90.15H90V90ZM90 135V134.85H45V135V135.15H90V135ZM45 180V180.15H90V180V179.85H45V180ZM90 225V224.85H45V225V225.15H90V225ZM45 270V270.15H90V270V269.85H45V270ZM90 315V314.85H45V315V315.15H90V315ZM45 360V360.15H90V360V359.85H45V360ZM90 405V404.85H45V405V405.15H90V405ZM45 450V450.15H90V450V449.85H45V450ZM90 495V494.85H45V495V495.15H90V495ZM450 45V44.85H405V45V45.15H450V45ZM450 90V89.85H405V90V90.15H450V90ZM450 135V134.85H405V135V135.15H450V135ZM405 180V180.15H450V180V179.85H405V180ZM450 225V224.85H405V225V225.15H450V225ZM405 270V270.15H450V270V269.85H405V270ZM450 315V314.85H405V315V315.15H450V315ZM405 360V360.15H450V360V359.85H405V360ZM450 405V404.85H405V405V405.15H450V405ZM405 450V450.15H450V450V449.85H405V450ZM450 495V494.85H405V495V495.15H450V495ZM810 45V44.85H765V45V45.15H810V45ZM810 90V89.85H765V90V90.15H810V90ZM810 135V134.85H765V135V135.15H810V135ZM765 180V180.15H810V180V179.85H765V180ZM810 225V224.85H765V225V225.15H810V225ZM765 270V270.15H810V270V269.85H765V270ZM810 315V314.85H765V315V315.15H810V315ZM765 360V360.15H810V360V359.85H765V360ZM810 405V404.85H765V405V405.15H810V405ZM765 450V450.15H810V450V449.85H765V450ZM810 495V494.85H765V495V495.15H810V495ZM1170 45V44.85H1125V45V45.15H1170V45ZM1170 90V89.85H1125V90V90.15H1170V90ZM1170 135V134.85H1125V135V135.15H1170V135ZM1125 180V180.15H1170V180V179.85H1125V180ZM1170 225V224.85H1125V225V225.15H1170V225ZM1125 270V270.15H1170V270V269.85H1125V270ZM1170 315V314.85H1125V315V315.15H1170V315ZM1125 360V360.15H1170V360V359.85H1125V360ZM1170 405V404.85H1125V405V405.15H1170V405ZM1125 450V450.15H1170V450V449.85H1125V450ZM1170 495V494.85H1125V495V495.15H1170V495ZM270 45V44.85H225V45V45.15H270V45ZM270 90V89.85H225V90V90.15H270V90ZM270 135V134.85H225V135V135.15H270V135ZM225 180V180.15H270V180V179.85H225V180ZM270 225V224.85H225V225V225.15H270V225ZM225 270V270.15H270V270V269.85H225V270ZM270 315V314.85H225V315V315.15H270V315ZM225 360V360.15H270V360V359.85H225V360ZM270 405V404.85H225V405V405.15H270V405ZM225 450V450.15H270V450V449.85H225V450ZM270 495V494.85H225V495V495.15H270V495ZM630 45V44.85H585V45V45.15H630V45ZM630 90V89.85H585V90V90.15H630V90ZM630 135V134.85H585V135V135.15H630V135ZM585 180V180.15H630V180V179.85H585V180ZM630 225V224.85H585V225V225.15H630V225ZM585 270V270.15H630V270V269.85H585V270ZM630 315V314.85H585V315V315.15H630V315ZM585 360V360.15H630V360V359.85H585V360ZM630 405V404.85H585V405V405.15H630V405ZM585 450V450.15H630V450V449.85H585V450ZM630 495V494.85H585V495V495.15H630V495ZM990 45V44.85H945V45V45.15H990V45ZM990 90V89.85H945V90V90.15H990V90ZM990 135V134.85H945V135V135.15H990V135ZM945 180V180.15H990V180V179.85H945V180ZM990 225V224.85H945V225V225.15H990V225ZM945 270V270.15H990V270V269.85H945V270ZM990 315V314.85H945V315V315.15H990V315ZM945 360V360.15H990V360V359.85H945V360ZM990 405V404.85H945V405V405.15H990V405ZM945 450V450.15H990V450V449.85H945V450ZM990 495V494.85H945V495V495.15H990V495ZM1350 45V44.85H1305V45V45.15H1350V45ZM1350 90V89.85H1305V90V90.15H1350V90ZM1350 135V134.85H1305V135V135.15H1350V135ZM1305 180V180.15H1350V180V179.85H1305V180ZM1350 225V224.85H1305V225V225.15H1350V225ZM1305 270V270.15H1350V270V269.85H1305V270ZM1350 315V314.85H1305V315V315.15H1350V315ZM1305 360V360.15H1350V360V359.85H1305V360ZM1350 405V404.85H1305V405V405.15H1350V405ZM1305 450V450.15H1350V450V449.85H1305V450ZM1350 495V494.85H1305V495V495.15H1350V495ZM180 45V44.85H135V45V45.15H180V45ZM180 90V89.85H135V90V90.15H180V90ZM180 135V134.85H135V135V135.15H180V135ZM135 180V180.15H180V180V179.85H135V180ZM180 225V224.85H135V225V225.15H180V225ZM135 270V270.15H180V270V269.85H135V270ZM180 315V314.85H135V315V315.15H180V315ZM135 360V360.15H180V360V359.85H135V360ZM180 405V404.85H135V405V405.15H180V405ZM135 450V450.15H180V450V449.85H135V450ZM180 495V494.85H135V495V495.15H180V495ZM540 45V44.85H495V45V45.15H540V45ZM540 90V89.85H495V90V90.15H540V90ZM540 135V134.85H495V135V135.15H540V135ZM495 180V180.15H540V180V179.85H495V180ZM540 225V224.85H495V225V225.15H540V225ZM495 270V270.15H540V270V269.85H495V270ZM540 315V314.85H495V315V315.15H540V315ZM495 360V360.15H540V360V359.85H495V360ZM540 405V404.85H495V405V405.15H540V405ZM495 450V450.15H540V450V449.85H495V450ZM540 495V494.85H495V495V495.15H540V495ZM900 45V44.85H855V45V45.15H900V45ZM900 90V89.85H855V90V90.15H900V90ZM900 135V134.85H855V135V135.15H900V135ZM855 180V180.15H900V180V179.85H855V180ZM900 225V224.85H855V225V225.15H900V225ZM855 270V270.15H900V270V269.85H855V270ZM900 315V314.85H855V315V315.15H900V315ZM855 360V360.15H900V360V359.85H855V360ZM900 405V404.85H855V405V405.15H900V405ZM855 450V450.15H900V450V449.85H855V450ZM900 495V494.85H855V495V495.15H900V495ZM1260 45V44.85H1215V45V45.15H1260V45ZM1260 90V89.85H1215V90V90.15H1260V90ZM1260 135V134.85H1215V135V135.15H1260V135ZM1215 180V180.15H1260V180V179.85H1215V180ZM1260 225V224.85H1215V225V225.15H1260V225ZM1215 270V270.15H1260V270V269.85H1215V270ZM1260 315V314.85H1215V315V315.15H1260V315ZM1215 360V360.15H1260V360V359.85H1215V360ZM1260 405V404.85H1215V405V405.15H1260V405ZM1215 450V450.15H1260V450V449.85H1215V450ZM1260 495V494.85H1215V495V495.15H1260V495ZM360 45V44.85H315V45V45.15H360V45ZM360 90V89.85H315V90V90.15H360V90ZM360 135V134.85H315V135V135.15H360V135ZM315 180V180.15H360V180V179.85H315V180ZM360 225V224.85H315V225V225.15H360V225ZM315 270V270.15H360V270V269.85H315V270ZM360 315V314.85H315V315V315.15H360V315ZM315 360V360.15H360V360V359.85H315V360ZM360 405V404.85H315V405V405.15H360V405ZM315 450V450.15H360V450V449.85H315V450ZM360 495V494.85H315V495V495.15H360V495ZM720 45V44.85H675V45V45.15H720V45ZM720 90V89.85H675V90V90.15H720V90ZM720 135V134.85H675V135V135.15H720V135ZM675 180V180.15H720V180V179.85H675V180ZM720 225V224.85H675V225V225.15H720V225ZM675 270V270.15H720V270V269.85H675V270ZM720 315V314.85H675V315V315.15H720V315ZM675 360V360.15H720V360V359.85H675V360ZM720 405V404.85H675V405V405.15H720V405ZM675 450V450.15H720V450V449.85H675V450ZM720 495V494.85H675V495V495.15H720V495ZM1080 45V44.85H1035V45V45.15H1080V45ZM1080 90V89.85H1035V90V90.15H1080V90ZM1080 135V134.85H1035V135V135.15H1080V135ZM1035 180V180.15H1080V180V179.85H1035V180ZM1080 225V224.85H1035V225V225.15H1080V225ZM1035 270V270.15H1080V270V269.85H1035V270ZM1080 315V314.85H1035V315V315.15H1080V315ZM1035 360V360.15H1080V360V359.85H1035V360ZM1080 405V404.85H1035V405V405.15H1080V405ZM1035 450V450.15H1080V450V449.85H1035V450ZM1080 495V494.85H1035V495V495.15H1080V495ZM1440 45V44.85H1395V45V45.15H1440V45ZM1440 90V89.85H1395V90V90.15H1440V90ZM1440 135V134.85H1395V135V135.15H1440V135ZM1395 180V180.15H1440V180V179.85H1395V180ZM1440 225V224.85H1395V225V225.15H1440V225ZM1395 270V270.15H1440V270V269.85H1395V270ZM1440 315V314.85H1395V315V315.15H1440V315ZM1395 360V360.15H1440V360V359.85H1395V360ZM1440 405V404.85H1395V405V405.15H1440V405ZM1395 450V450.15H1440V450V449.85H1395V450ZM1440 495V494.85H1395V495V495.15H1440V495ZM0 0V-0.3H-0.3V0H0ZM0 540H-0.3V540.3H0V540ZM1440 0H1440.3V-0.3H1440V0ZM1440 540V540.3H1440.3V540H1440ZM0 0V0.3H45V0V-0.3H0V0ZM0 45H0.3V0H0H-0.3V45H0ZM0 90H0.3V45H0H-0.3V90H0ZM0 135H0.3V90H0H-0.3V135H0ZM0 225H0.3V180H0H-0.3V225H0ZM0 315H0.3V270H0H-0.3V315H0ZM0 405H0.3V360H0H-0.3V405H0ZM0 495H0.3V450H0H-0.3V495H0ZM0 180H0.3V135H0H-0.3V180H0ZM0 270H0.3V225H0H-0.3V270H0ZM0 360H0.3V315H0H-0.3V360H0ZM0 450H0.3V405H0H-0.3V450H0ZM45 540V539.7H0V540V540.3H45V540ZM0 540H0.3V495H0H-0.3V540H0ZM360 0V0.3H405V0V-0.3H360V0ZM405 540V539.7H360V540V540.3H405V540ZM720 0V0.3H765V0V-0.3H720V0ZM765 540V539.7H720V540V540.3H765V540ZM1080 0V0.3H1125V0V-0.3H1080V0ZM1125 540V539.7H1080V540V540.3H1125V540ZM180 0V0.3H225V0V-0.3H180V0ZM225 540V539.7H180V540V540.3H225V540ZM540 0V0.3H585V0V-0.3H540V0ZM585 540V539.7H540V540V540.3H585V540ZM900 0V0.3H945V0V-0.3H900V0ZM945 540V539.7H900V540V540.3H945V540ZM1260 0V0.3H1305V0V-0.3H1260V0ZM1305 540V539.7H1260V540V540.3H1305V540ZM90 0V0.3H135V0V-0.3H90V0ZM135 540V539.7H90V540V540.3H135V540ZM450 0V0.3H495V0V-0.3H450V0ZM495 540V539.7H450V540V540.3H495V540ZM810 0V0.3H855V0V-0.3H810V0ZM855 540V539.7H810V540V540.3H855V540ZM1170 0V0.3H1215V0V-0.3H1170V0ZM1215 540V539.7H1170V540V540.3H1215V540ZM270 0V0.3H315V0V-0.3H270V0ZM315 540V539.7H270V540V540.3H315V540ZM630 0V0.3H675V0V-0.3H630V0ZM675 540V539.7H630V540V540.3H675V540ZM990 0V0.3H1035V0V-0.3H990V0ZM1035 540V539.7H990V540V540.3H1035V540ZM1350 0V0.3H1395V0V-0.3H1350V0ZM1395 540V539.7H1350V540V540.3H1395V540ZM45 0V0.3H90V0V-0.3H45V0ZM90 540V539.7H45V540V540.3H90V540ZM405 0V0.3H450V0V-0.3H405V0ZM450 540V539.7H405V540V540.3H450V540ZM765 0V0.3H810V0V-0.3H765V0ZM810 540V539.7H765V540V540.3H810V540ZM1125 0V0.3H1170V0V-0.3H1125V0ZM1170 540V539.7H1125V540V540.3H1170V540ZM225 0V0.3H270V0V-0.3H225V0ZM270 540V539.7H225V540V540.3H270V540ZM585 0V0.3H630V0V-0.3H585V0ZM630 540V539.7H585V540V540.3H630V540ZM945 0V0.3H990V0V-0.3H945V0ZM990 540V539.7H945V540V540.3H990V540ZM1305 0V0.3H1350V0V-0.3H1305V0ZM1350 540V539.7H1305V540V540.3H1350V540ZM135 0V0.3H180V0V-0.3H135V0ZM180 540V539.7H135V540V540.3H180V540ZM495 0V0.3H540V0V-0.3H495V0ZM540 540V539.7H495V540V540.3H540V540ZM855 0V0.3H900V0V-0.3H855V0ZM900 540V539.7H855V540V540.3H900V540ZM1215 0V0.3H1260V0V-0.3H1215V0ZM1260 540V539.7H1215V540V540.3H1260V540ZM315 0V0.3H360V0V-0.3H315V0ZM360 540V539.7H315V540V540.3H360V540ZM675 0V0.3H720V0V-0.3H675V0ZM720 540V539.7H675V540V540.3H720V540ZM1035 0V0.3H1080V0V-0.3H1035V0ZM1080 540V539.7H1035V540V540.3H1080V540ZM1395 0V0.3H1440V0V-0.3H1395V0ZM1440 0H1439.7V45H1440H1440.3V0H1440ZM1440 45H1439.7V90H1440H1440.3V45H1440ZM1440 90H1439.7V135H1440H1440.3V90H1440ZM1440 180H1439.7V225H1440H1440.3V180H1440ZM1440 270H1439.7V315H1440H1440.3V270H1440ZM1440 360H1439.7V405H1440H1440.3V360H1440ZM1440 450H1439.7V495H1440H1440.3V450H1440ZM1440 135H1439.7V180H1440H1440.3V135H1440ZM1440 225H1439.7V270H1440H1440.3V225H1440ZM1440 315H1439.7V360H1440H1440.3V315H1440ZM1440 405H1439.7V450H1440H1440.3V405H1440ZM1440 495H1439.7V540H1440H1440.3V495H1440ZM1440 540V539.7H1395V540V540.3H1440V540Z" fill="#F5630E" fill-opacity="0.25" mask="url(#path-1-inside-1_35_613)"/>
</svg>
